:FULLY-SPECIFIED
:FORCE-ALL-JOINTS-BE-3DOF
:DEGREES
1427
root -2.08881 13.7328 12.6636 6.48411 27.2053 6.44031
lfemur 25.4887 -0.14473 -10.6729
ltibia 16.8917 0 0
lfoot -15.9144 34.3584 0.000672296
ltoes -25.2797 0 0
rfemur -64.8175 -20.8738 11.7575
rtibia 72.9823 0 0
rfoot -8.54642 9.95962 -0.00763241
rtoes 3.44215 0 0
lowerback 10.4554 2.13006 -10.123
upperback -3.16486 1.34087 -1.0023
thorax -9.5714 1.21173 4.3628
lowerneck 0.203819 -11.767 -10.7082
upperneck 5.79373 -16.2089 10.0422
head 3.38479 -8.06048 4.02647
lclavicle 1.21132e-14 -3.39281e-15 2.10003e-31
lhumerus -73.5401 -17.7657 103.972
lradius 101.179 0 0
lwrist 57.94 0 0
lhand -9.3899 42.9642 -0.000424653
lfingers 7.12502 0 0
lthumb 16.571 72.2762 -0.000488928
rclavicle 1.21132e-14 -3.39281e-15 2.10003e-31
rhumerus 63.2425 -14.0302 -27.8029
rradius 82.0399 0 0
rwrist 27.511 0 0
rhand -43.8062 -31.3673 0.00024699
rfingers 7.12502 0 0
rthumb -16.6346 -60.6744 0.00021715
1428
root -2.09225 13.7302 12.6655 6.50139 27.2093 6.45837
lfemur 25.4586 -0.146262 -10.6478
ltibia 16.9389 0 0
lfoot -15.8869 34.3724 0.000703553
ltoes -25.1166 0 0
rfemur -64.884 -20.932 11.7972
rtibia 73.0583 0 0
rfoot -8.58084 10.0068 -0.00777034
rtoes 3.55435 0 0
lowerback 10.4401 2.11742 -10.1477
upperback -3.18182 1.32177 -0.99751
thorax -9.5795 1.20515 4.38548
lowerneck 0.187075 -11.7572 -10.6884
upperneck 5.8093 -16.193 10.0087
head 3.38615 -8.05243 4.01373
lclavicle 1.20372e-14 -2.33454e-15 2.28163e-31
lhumerus -73.5694 -17.8044 104.018
lradius 101.154 0 0
lwrist 57.9871 0 0
lhand -9.38586 42.8534 -0.000504682
lfingers 7.12502 0 0
lthumb 16.5749 72.165 -0.000566133
rclavicle 1.20372e-14 -2.33454e-15 2.28163e-31
rhumerus 63.2098 -14.0165 -27.7927
rradius 82.0623 0 0
rwrist 27.4373 0 0
rhand -43.7896 -31.3518 0.000258266
rfingers 7.12502 0 0
rthumb -16.6187 -60.6602 0.000227772
1429
root -2.09568 13.7275 12.6674 6.52322 27.2101 6.47823
lfemur 25.4362 -0.146194 -10.6198
ltibia 16.9716 0 0
lfoot -15.8524 34.3876 0.000722135
ltoes -24.9476 0 0
rfemur -64.9642 -20.9972 11.845
rtibia 73.1485 0 0
rfoot -8.62338 10.0607 -0.00775188
rtoes 3.68517 0 0
lowerback 10.4228 2.10396 -10.1737
upperback -3.20014 1.30159 -0.992436
thorax -9.58783 1.19822 4.40941
lowerneck 0.168112 -11.7465 -10.6662
upperneck 5.82577 -16.1756 9.97241
head 3.38754 -8.04354 3.99978
lclavicle 1.19126e-14 -1.1871e-15 2.42407e-31
lhumerus -73.601 -17.8475 104.069
lradius 101.126 0 0
lwrist 58.0378 0 0
lhand -9.37975 42.7342 -0.000578492
lfingers 7.12502 0 0
lthumb 16.5808 72.0454 -0.000635638
rclavicle 1.19126e-14 -1.1871e-15 2.42407e-31
rhumerus 63.1758 -14.0022 -27.7839
rradius 82.0866 0 0
rwrist 27.3554 0 0
rhand -43.7718 -31.3338 0.00026523
rfingers 7.12502 0 0
rthumb -16.6015 -60.6437 0.000234617
1430
root -2.09912 13.7249 12.6694 6.5499 27.2073 6.49995
lfemur 25.422 -0.1444 -10.5889
ltibia 16.9885 0 0
lfoot -15.8104 34.4041 0.000723523
ltoes -24.7729 0 0
rfemur -65.0589 -21.0695 11.9013
rtibia 73.2539 0 0
rfoot -8.6746 10.1218 -0.00754692
rtoes 3.83574 0 0
lowerback 10.4034 2.08967 -10.201
upperback -3.21987 1.28032 -0.987074
thorax -9.59636 1.19091 4.43462
lowerneck 0.146803 -11.7347 -10.6414
upperneck 5.84315 -16.1564 9.93319
head 3.38896 -8.03376 3.98459
lclavicle 1.17357e-14 5.33706e-17 2.50685e-31
lhumerus -73.6349 -17.8953 104.123
lradius 101.095 0 0
lwrist 58.0923 0 0
lhand -9.37143 42.6063 -0.00063803
lfingers 7.12502 0 0
lthumb 16.5888 71.9168 -0.000689499
rclavicle 1.17357e-14 5.33706e-17 2.50685e-31
rhumerus 63.1405 -13.9874 -27.7769
rradius 82.1132 0 0
rwrist 27.265 0 0
rhand -43.7526 -31.3132 0.000266092
rfingers 7.12502 0 0
rthumb -16.583 -60.6247 0.000236054
1431
root -2.10255 13.7223 12.6713 6.58174 27.2007 6.52363
lfemur 25.4169 -0.140751 -10.5548
ltibia 16.9883 0 0
lfoot -15.7606 34.4219 0.000702358
ltoes -24.5924 0 0
rfemur -65.169 -21.1495 11.9669
rtibia 73.3753 0 0
rfoot -8.73505 10.1905 -0.00712037
rtoes 4.00721 0 0
lowerback 10.3817 2.0745 -10.2297
upperback -3.24109 1.25793 -0.981416
thorax -9.6051 1.18322 4.46115
lowerneck 0.123026 -11.7219 -10.614
upperneck 5.86147 -16.1355 9.89093
head 3.39042 -8.02304 3.96808
lclavicle 1.1503e-14 1.39073e-15 2.5052e-31
lhumerus -73.6713 -17.9481 104.182
lradius 101.061 0 0
lwrist 58.1508 0 0
lhand -9.36075 42.4694 -0.000673494
lfingers 7.12502 0 0
lthumb 16.5991 71.779 -0.000718062
rclavicle 1.1503e-14 1.39073e-15 2.5052e-31
rhumerus 63.104 -13.972 -27.7716
rradius 82.142 0 0
rwrist 27.1656 0 0
rhand -43.7321 -31.2898 0.000258754
rfingers 7.12502 0 0
rthumb -16.5633 -60.6029 0.000230165
1432
root -2.10598 13.7196 12.6732 6.61905 27.19 6.54933
lfemur 25.4215 -0.135125 -10.5174
ltibia 16.9696 0 0
lfoot -15.7025 34.4412 0.00065235
ltoes -24.4061 0 0
rfemur -65.2957 -21.2373 12.0422
rtibia 73.5137 0 0
rfoot -8.80525 10.267 -0.00643149
rtoes 4.20073 0 0
lowerback 10.3577 2.05844 -10.2598
upperback -3.26383 1.23439 -0.975452
thorax -9.61403 1.17515 4.48901
lowerneck 0.0966549 -11.708 -10.5837
upperneck 5.88075 -16.1127 9.84551
head 3.3919 -8.01135 3.95021
lclavicle 1.12106e-14 2.82883e-15 2.38956e-31
lhumerus -73.7102 -18.0061 104.245
lradius 101.023 0 0
lwrist 58.2132 0 0
lhand -9.34755 42.3231 -0.000673143
lfingers 7.12502 0 0
lthumb 16.6118 71.6317 -0.000709779
rclavicle 1.12106e-14 2.82883e-15 2.38956e-31
rhumerus 63.0661 -13.9559 -27.7684
rradius 82.1732 0 0
rwrist 27.0568 0 0
rhand -43.7102 -31.2635 0.000240777
rfingers 7.12502 0 0
rthumb -16.5422 -60.5783 0.000214716
1433
root -2.10942 13.717 12.6751 6.66213 27.1749 6.57715
lfemur 25.4365 -0.1274 -10.4767
ltibia 16.9312 0 0
lfoot -15.6355 34.4619 0.000566183
ltoes -24.2142 0 0
rfemur -65.4397 -21.3334 12.1278
rtibia 73.6699 0 0
rfoot -8.88577 10.3519 -0.00543318
rtoes 4.41744 0 0
lowerback 10.3311 2.04146 -10.2913
upperback -3.28817 1.20967 -0.969175
thorax -9.62315 1.16667 4.51824
lowerneck 0.0675659 -11.6929 -10.5504
upperneck 5.90101 -16.088 9.79681
head 3.3934 -7.99864 3.93092
lclavicle 1.08549e-14 4.37154e-15 2.12511e-31
lhumerus -73.7518 -18.0695 104.313
lradius 100.982 0 0
lwrist 58.2799 0 0
lhand -9.33167 42.1672 -0.000623108
lfingers 7.12502 0 0
lthumb 16.6271 71.4745 -0.000651014
rclavicle 1.08549e-14 4.37154e-15 2.12511e-31
rhumerus 63.0269 -13.9393 -27.7673
rradius 82.2068 0 0
rwrist 26.9382 0 0
rhand -43.6869 -31.2341 0.000209347
rfingers 7.12502 0 0
rthumb -16.5197 -60.5508 0.000187131
1434
root -2.11285 13.7144 12.677 6.71128 27.1552 6.60715
lfemur 25.4626 -0.117456 -10.4323
ltibia 16.8718 0 0
lfoot -15.5591 34.4842 0.000435411
ltoes -24.0166 0 0
rfemur -65.602 -21.438 12.2245
rtibia 73.8449 0 0
rfoot -8.97715 10.4456 -0.00407128
rtoes 4.65849 0 0
lowerback 10.3019 2.02352 -10.3242
upperback -3.31415 1.18377 -0.962576
thorax -9.63245 1.1578 4.54888
lowerneck 0.0356353 -11.6766 -10.5141
upperneck 5.92226 -16.0612 9.74472
head 3.39493 -7.98487 3.91015
lclavicle 1.04323e-14 6.02272e-15 1.6712e-31
lhumerus -73.7961 -18.1385 104.386
lradius 100.937 0 0
lwrist 58.351 0 0
lhand -9.31297 42.0012 -0.00050719
lfingers 7.12502 0 0
lthumb 16.6451 71.307 -0.000525852
rclavicle 1.04323e-14 6.02272e-15 1.6712e-31
rhumerus 62.9864 -13.9221 -27.7685
rradius 82.243 0 0
rwrist 26.8093 0 0
rhand -43.662 -31.2014 0.000161253
rfingers 7.12502 0 0
rthumb -16.4958 -60.5201 0.000144459
1435
root -2.11629 13.7117 12.6789 6.7668 27.1305 6.63941
lfemur 25.5006 -0.105179 -10.3842
ltibia 16.7899 0 0
lfoot -15.473 34.508 0.000250357
ltoes -23.8134 0 0
rfemur -65.7837 -21.5514 12.3328
rtibia 74.0395 0 0
rfoot -9.07993 10.5483 -0.00228378
rtoes 4.925 0 0
lowerback 10.27 2.00459 -10.3587
upperback -3.34184 1.15663 -0.955645
thorax -9.64193 1.1485 4.58094
lowerneck 0.000739769 -11.6591 -10.4746
upperneck 5.94453 -16.0324 9.68911
head 3.39648 -7.97 3.88784
lclavicle 9.93911e-15 7.78622e-15 9.80826e-32
lhumerus -73.8433 -18.2134 104.464
lradius 100.889 0 0
lwrist 58.4265 0 0
lhand -9.2913 41.8248 -0.000306652
lfingers 7.12502 0 0
lthumb 16.666 71.129 -0.000315884
rclavicle 9.93911e-15 7.78622e-15 9.80826e-32
rhumerus 62.9445 -13.9044 -27.7721
rradius 82.2819 0 0
rwrist 26.6697 0 0
rhand -43.6356 -31.1653 9.28438e-05
rfingers 7.12502 0 0
rthumb -16.4704 -60.4862 8.33452e-05
1436
root -2.11972 13.7091 12.6808 366.829 27.1005 366.674
lfemur 25.5512 -0.0904563 -10.3322
ltibia 16.6844 0 0
lfoot -15.3767 34.5334 0
ltoes -23.6046 0 0
rfemur -65.9857 -21.6738 12.4534
rtibia 74.2547 0 0
rfoot -9.19466 10.6606 0
rtoes 5.21813 0 0
lowerback 10.2353 1.98466 -10.3946
upperback -3.37128 1.12825 -0.948374
thorax -9.65157 1.13879 4.61446
lowerneck -0.0372435 -11.6403 -10.4317
upperneck 5.96783 -16.0014 9.62987
head 3.39804 -7.95398 3.86395
lclavicle 9.37161e-15 9.6659e-15 0
lhumerus -73.8935 -18.2944 104.547
lradius 100.837 0 0
lwrist 58.5067 0 0
lhand -9.26649 41.6378 0
lfingers 7.12502 0 0
lthumb 16.6899 -289.06 0
rclavicle 9.37161e-15 9.6659e-15 0
rhumerus 62.9014 -13.886 -27.7784
rradius 82.3235 0 0
rwrist 26.519 0 0
rhand -43.6076 -31.1257 0
rfingers 7.12502 0 0
rthumb -16.4434 -60.4488 0
